<?xml version="1.0" standalone="no"?>
<!DOCTYPE svg PUBLIC "-//W3C//DTD SVG 20010904//EN"
 "http://www.w3.org/TR/2001/REC-SVG-20010904/DTD/svg10.dtd">
<svg version="1.0" xmlns="http://www.w3.org/2000/svg"
 width="600.000000pt" height="600.000000pt" viewBox="0 0 600.000000 600.000000"
 preserveAspectRatio="xMidYMid meet">

<g transform="translate(0.000000,600.000000) scale(0.100000,-0.100000)"
fill="#000000" stroke="none">
<path d="M2927 5977 c-109 -134 -181 -264 -213 -382 -22 -81 -30 -287 -14
-383 17 -105 61 -238 120 -357 52 -107 137 -245 150 -245 13 0 79 105 136 215
62 120 107 244 128 355 20 102 20 283 2 371 -28 132 -100 276 -196 393 -50 62
-82 71 -113 33z"/>
<path d="M906 5343 c-37 -133 -40 -334 -7 -462 75 -284 283 -518 620 -699 l99
-53 8 58 c4 32 4 118 1 193 -21 480 -226 798 -612 948 -82 32 -103 35 -109 15z"/>
<path d="M5010 5336 c-314 -111 -512 -332 -596 -663 -37 -147 -53 -358 -38
-490 l7 -52 76 39 c465 234 711 613 662 1018 -13 106 -28 172 -39 172 -4 0
-36 -11 -72 -24z"/>
<path d="M1555 5208 c3 -13 26 -63 50 -113 92 -188 304 -431 695 -798 135
-126 348 -329 473 -450 l229 -220 151 150 c84 82 290 278 458 436 502 468 690
682 799 909 66 136 50 148 -33 24 -32 -46 -100 -133 -151 -192 -151 -175 -287
-290 -618 -522 -270 -189 -392 -287 -511 -412 l-97 -102 -97 102 c-114 120
-247 229 -468 382 -295 206 -439 320 -574 458 -83 83 -208 237 -260 318 -34
54 -57 69 -46 30z"/>
<path d="M1050 4183 c1 -10 6 -14 330 -237 455 -313 631 -450 809 -627 221
-221 361 -441 440 -693 32 -99 49 -186 38 -186 -4 0 -73 13 -154 30 -244 49
-441 70 -651 70 -336 -1 -580 -54 -842 -184 l-95 -48 -164 -410 c-152 -382
-163 -413 -158 -458 13 -106 107 -222 208 -255 67 -23 152 -22 219 0 110 36
210 170 210 281 0 20 -62 190 -156 424 -86 215 -153 394 -149 398 11 11 470 6
600 -7 680 -69 1055 -309 1172 -747 23 -89 26 -117 26 -274 0 -185 -11 -271
-59 -465 -52 -206 -125 -406 -239 -657 l-63 -138 629 0 628 0 -46 98 c-279
597 -377 1092 -287 1447 23 90 106 252 166 323 192 228 529 366 1008 413 136
13 584 18 596 7 3 -4 -64 -186 -151 -404 -146 -368 -157 -400 -152 -445 18
-149 161 -272 317 -272 156 0 299 123 317 273 5 46 -5 76 -157 459 l-163 411
-101 49 c-267 130 -502 180 -838 181 -211 0 -407 -21 -652 -70 -82 -17 -151
-28 -154 -25 -11 11 39 193 82 296 82 202 192 363 376 553 190 195 348 320
812 639 340 234 348 240 348 249 0 4 -2 8 -5 8 -14 0 -618 -196 -708 -229
-392 -146 -621 -278 -823 -473 -172 -167 -289 -345 -373 -569 -21 -56 -41 -97
-44 -91 -4 5 -18 42 -33 83 -84 233 -236 457 -426 625 -164 146 -429 296 -715
403 -111 42 -751 251 -768 251 -3 0 -5 -3 -5 -7z m-7 -2300 c63 -175 119 -326
122 -335 7 -17 -9 -18 -239 -18 -190 0 -246 3 -246 13 0 19 234 657 241 657 3
0 58 -143 122 -317z m4164 -15 l121 -333 -124 -3 c-68 -1 -180 -1 -248 0
l-124 3 121 333 c67 182 124 332 128 332 3 0 60 -150 126 -332z"/>
<path d="M235 4064 c8 -99 37 -225 69 -303 118 -291 414 -508 819 -601 53 -12
97 -24 97 -27 0 -2 -39 -1 -87 2 -158 12 -408 -22 -550 -75 -209 -78 -361
-202 -469 -383 -47 -79 -115 -250 -103 -261 17 -17 213 -38 309 -32 136 7 212
27 335 86 213 103 386 287 539 571 l47 87 -22 97 c-40 186 -121 386 -210 517
-160 236 -408 377 -692 395 l-89 6 7 -79z"/>
<path d="M5615 4133 c-65 -9 -191 -46 -251 -73 -276 -125 -469 -388 -569 -778
-35 -139 -35 -147 13 -241 230 -450 577 -683 976 -657 88 5 164 17 203 31 15
5 -35 146 -83 234 -127 231 -339 385 -619 450 -122 28 -311 44 -417 36 -49 -3
-88 -4 -88 -2 0 3 44 15 98 27 190 44 360 116 500 213 86 59 214 191 261 270
69 116 114 262 126 410 l7 87 -63 -1 c-35 -1 -77 -4 -94 -6z"/>
</g>
</svg>
